# xmcd CD database file
#
# Track frame offsets:
#	150
#	20871
#	44392
#	68868
#	94250
#	114081
#	136973
#	156910
#	176831
#	200842
#	220396
#
# Disc length: 3287 seconds
#
# Revision: 0
# Processed by: cddbd v1.5.2PL0 Copyright (c) Steve Scherf et al.
# Submitted via: cdripper 1,0,39,0213
#
DISCID=a60cd50b
DTITLE=Keiko Matsui - Whisper From The Mirrow
DYEAR=1900
DGENRE=New Age
TTITLE0=01 - Whisper from the Mirror
TTITLE1=02 - Invisible Wing
TTITLE2=03 - Tears of the Ocean
TTITLE3=04 - Between the Moons
TTITLE4=05 - Beyond the Light
TTITLE5=06 - Torches on the Earth
TTITLE6=07 - Dimensions
TTITLE7=08 - Savanna,   No  problem
TTITLE8=09 - Midnight  Stone
TTITLE9=10 - See you there
TTITLE10=11 - Ever After (4 hand piano, with Bob James)
EXTD=
EXTT0=
EXTT1=
EXTT2=
EXTT3=
EXTT4=
EXTT5=
EXTT6=
EXTT7=
EXTT8=
EXTT9=
EXTT10=
PLAYORDER=
